<svg width="512" height="512" viewBox="0 0 512 512" fill="none" xmlns="http://www.w3.org/2000/svg">
<g clip-path="url(#clip0_42_781)">
<path d="M157.125 324.835C157.125 324.835 144.716 321.784 148.007 308.401L171.04 214.722C171.04 214.722 174.331 201.339 186.74 204.39L230.172 215.069C230.172 215.069 242.581 218.121 239.291 231.503L216.257 325.182C216.257 325.182 212.967 338.565 200.557 335.514L157.125 324.835Z" fill="white"/>
<path d="M176.422 219.593L232.263 233.323L210.875 320.311L155.034 306.581L176.422 219.593Z" fill="#FFAD33"/>
</g>
<path d="M193.093 164.232V300.168C193.093 315.784 198.341 324.616 208.837 326.664V335.112L170.053 357C164.421 354.696 159.173 350.984 154.309 345.864C149.445 340.488 147.013 335.496 147.013 330.888V194.952C147.013 179.336 141.765 170.504 131.269 168.456V160.008L170.053 138.12C175.685 140.424 180.933 144.264 185.797 149.64C190.661 154.76 193.093 159.624 193.093 164.232ZM141.253 90.12V66.696C141.253 65.928 146.501 63.624 156.997 59.784C167.749 55.688 173.893 53.64 175.429 53.64C177.221 53.64 179.653 55.816 182.725 60.168C186.053 64.52 187.717 69 187.717 73.608V101.64C187.717 102.408 182.597 104.84 172.357 108.936C162.117 112.776 155.845 114.696 153.541 114.696C151.237 114.696 148.549 112.52 145.477 108.168C142.661 103.56 141.253 97.544 141.253 90.12Z" fill="url(#paint0_linear_42_781)"/>
<path d="M322.052 321.672C326.916 321.672 331.908 319.624 337.028 315.528V265.992C337.028 250.376 331.78 241.544 321.284 239.496V231.048L360.068 209.16C365.444 211.464 370.692 215.304 375.812 220.68C380.932 225.8 383.492 230.664 383.492 235.272V321.288C383.492 323.336 369.412 329.864 341.252 340.872C313.348 351.624 296.196 357 289.796 357C283.652 357 276.484 351.496 268.292 340.488C260.356 329.48 256.388 316.296 256.388 300.936V96.648C256.388 94.856 270.98 88.584 300.164 77.832C329.604 66.824 346.5 61.32 350.852 61.32C352.388 61.32 354.18 65.032 356.228 72.456C358.276 79.88 360.58 88.84 363.14 99.336C365.956 109.832 368.772 117.64 371.588 122.76C374.66 127.624 380.292 130.056 388.484 130.056V137.736C382.852 140.296 373.252 144.904 359.684 151.56C346.372 157.96 339.204 161.16 338.18 161.16C334.34 161.16 329.476 150.792 323.588 130.056C317.7 109.064 312.964 98.568 309.38 98.568C306.82 98.568 304.516 99.848 302.468 102.408V293.256C302.468 312.2 308.996 321.672 322.052 321.672Z" fill="white"/>
<path d="M72.1562 394.12C70.6843 394.12 69.4043 393.512 68.3163 392.296C67.2923 391.08 66.7803 389.64 66.7803 387.976C66.7803 386.632 67.1643 385.576 67.9323 384.808C68.7643 384.04 69.8523 383.656 71.1963 383.656C72.6683 383.656 73.9163 384.264 74.9403 385.48C76.0283 386.696 76.5723 388.136 76.5723 389.8C76.5723 391.144 76.1563 392.2 75.3243 392.968C74.5563 393.736 73.5003 394.12 72.1562 394.12ZM68.5083 411.4C68.5083 408.136 68.0603 405.736 67.1643 404.2C66.2683 402.6 64.4763 401.8 61.7883 401.8H59.8682V399.88H68.5083C70.8763 399.88 72.6363 400.2 73.7883 400.84C75.0043 401.416 75.8683 402.504 76.3803 404.104C76.8923 405.704 77.1483 408.136 77.1483 411.4V445H68.5083V411.4ZM92.1333 411.4C92.1333 408.136 91.6853 405.736 90.7893 404.2C89.8933 402.6 88.1013 401.8 85.4133 401.8H83.4932V399.88H92.1333C94.5013 399.88 96.2933 400.2 97.5093 400.84C98.7893 401.48 99.7173 402.44 100.293 403.72H100.773C102.117 402.376 103.845 401.256 105.957 400.36C108.133 399.4 110.565 398.92 113.253 398.92C118.053 398.92 121.957 400.2 124.965 402.76C128.037 405.32 129.573 409.8 129.573 416.2V445H120.933V416.2C120.933 411.72 119.909 408.456 117.861 406.408C115.877 404.296 113.381 403.24 110.373 403.24C106.981 403.24 103.781 404.936 100.773 408.328V445H92.1333V411.4ZM148 394.12C146.528 394.12 145.248 393.512 144.16 392.296C143.136 391.08 142.624 389.64 142.624 387.976C142.624 386.632 143.008 385.576 143.776 384.808C144.608 384.04 145.696 383.656 147.04 383.656C148.512 383.656 149.76 384.264 150.784 385.48C151.872 386.696 152.416 388.136 152.416 389.8C152.416 391.144 152 392.2 151.168 392.968C150.4 393.736 149.344 394.12 148 394.12ZM144.352 411.4C144.352 408.136 143.904 405.736 143.008 404.2C142.112 402.6 140.32 401.8 137.632 401.8H135.712V399.88H144.352C146.72 399.88 148.48 400.2 149.632 400.84C150.848 401.416 151.712 402.504 152.224 404.104C152.736 405.704 152.992 408.136 152.992 411.4V445H144.352V411.4ZM196.489 446.92C190.217 446.92 184.585 445.384 179.593 442.312C174.665 439.24 170.793 435.08 167.977 429.832C165.225 424.52 163.849 418.696 163.849 412.36C163.849 406.28 165.065 400.776 167.497 395.848C169.929 390.856 173.385 386.92 177.865 384.04C182.409 381.16 187.657 379.72 193.609 379.72C199.113 379.72 203.849 380.456 207.817 381.928C211.849 383.336 214.793 385.16 216.649 387.4C217.673 388.68 218.313 390.376 218.569 392.488C218.889 394.6 219.049 397.224 219.049 400.36H217.129C215.913 394.728 213.609 390.536 210.217 387.784C206.825 384.968 202.249 383.56 196.489 383.56C191.305 383.56 186.985 384.936 183.529 387.688C180.073 390.376 177.513 393.896 175.849 398.248C174.249 402.6 173.449 407.304 173.449 412.36C173.449 423.176 175.561 431.016 179.785 435.88C184.009 440.68 189.577 443.08 196.489 443.08C199.753 443.08 202.537 442.792 204.841 442.216C207.145 441.64 209.321 440.808 211.369 439.72V423.016C211.369 420.84 211.721 418.952 212.425 417.352C213.129 415.752 214.633 414.44 216.937 413.416C219.305 412.328 222.729 411.784 227.209 411.784V413.704C224.329 413.704 222.409 414.44 221.449 415.912C220.489 417.384 220.009 419.688 220.009 422.824V440.872C216.553 442.984 212.937 444.52 209.161 445.48C205.385 446.44 201.161 446.92 196.489 446.92ZM246.383 445.96C244.335 445.96 242.255 445.544 240.143 444.712C238.031 443.816 236.207 442.376 234.671 440.392C233.199 438.408 232.463 435.784 232.463 432.52C232.463 427.656 234.703 424.2 239.183 422.152C243.727 420.104 249.647 419.08 256.943 419.08H259.823C259.823 412.808 258.959 408.52 257.231 406.216C255.503 403.912 253.007 402.76 249.743 402.76C246.863 402.76 244.559 403.368 242.831 404.584C241.103 405.8 239.887 407.912 239.183 410.92H234.863C234.863 408.744 234.991 407.048 235.247 405.832C235.503 404.552 236.175 403.368 237.263 402.28C238.415 401.128 240.303 400.296 242.927 399.784C245.615 399.208 248.527 398.92 251.663 398.92C256.847 398.92 260.943 400.328 263.951 403.144C266.959 405.896 268.463 411.208 268.463 419.08V445H263.663L260.303 440.68H259.823C258.671 442.152 256.975 443.4 254.735 444.424C252.495 445.448 249.711 445.96 246.383 445.96ZM250.703 441.64C252.815 441.64 254.575 441.128 255.983 440.104C257.391 439.08 258.671 437.672 259.823 435.88V422.92H256.943C252.207 422.92 248.463 423.816 245.711 425.608C242.959 427.336 241.583 429.64 241.583 432.52C241.583 435.464 242.447 437.736 244.175 439.336C245.967 440.872 248.143 441.64 250.703 441.64ZM296.73 445.96C291.162 445.96 286.874 443.752 283.866 439.336C280.922 434.92 279.45 429.288 279.45 422.44C279.45 415.592 280.986 409.96 284.058 405.544C287.194 401.128 291.738 398.92 297.69 398.92C300.122 398.92 302.266 399.176 304.122 399.688C305.978 400.2 307.834 400.904 309.69 401.8V393.16C309.69 389.896 309.242 387.496 308.346 385.96C307.45 384.36 305.658 383.56 302.97 383.56H301.05V381.64H309.69C312.058 381.64 313.818 381.96 314.97 382.6C316.186 383.176 317.05 384.264 317.562 385.864C318.074 387.464 318.33 389.896 318.33 393.16V445H313.53L310.17 440.68H309.69C308.282 442.28 306.618 443.56 304.698 444.52C302.842 445.48 300.186 445.96 296.73 445.96ZM299.609 442.12C302.234 442.12 304.218 441.64 305.562 440.68C306.906 439.72 308.282 438.28 309.69 436.36V405.64C307.77 404.744 306.106 404.04 304.698 403.528C303.29 403.016 301.914 402.76 300.57 402.76C296.474 402.76 293.434 404.552 291.45 408.136C289.53 411.72 288.57 416.488 288.57 422.44C288.57 428.328 289.498 433.096 291.354 436.744C293.21 440.328 295.962 442.12 299.609 442.12ZM348.897 464.2C342.433 464.2 337.281 463.016 333.441 460.648C329.665 458.28 327.777 454.504 327.777 449.32C327.777 446.376 328.769 443.816 330.753 441.64C332.737 439.464 335.265 437.864 338.337 436.84C335.777 435.432 334.497 433.512 334.497 431.08C334.497 429.8 334.785 428.808 335.361 428.104C335.937 427.4 336.769 426.632 337.857 425.8C335.809 424.776 334.081 423.176 332.673 421C331.329 418.824 330.657 416.264 330.657 413.32C330.657 403.72 336.737 398.92 348.897 398.92H366.657V401.32L360.417 402.28V402.76C362.401 403.784 364.001 405.224 365.217 407.08C366.497 408.872 367.137 410.952 367.137 413.32C367.137 422.92 361.057 427.72 348.897 427.72C342.177 427.72 338.817 428.84 338.817 431.08C338.817 433.32 342.177 434.44 348.897 434.44C355.105 434.44 360.161 435.688 364.065 438.184C368.033 440.616 370.017 444.328 370.017 449.32C370.017 454.504 368.097 458.28 364.257 460.648C360.481 463.016 355.361 464.2 348.897 464.2ZM348.897 424.36C351.777 424.36 354.081 423.496 355.809 421.768C357.601 419.976 358.497 417.16 358.497 413.32C358.497 409.672 357.601 406.92 355.809 405.064C354.081 403.208 351.777 402.28 348.897 402.28C346.017 402.28 343.681 403.176 341.889 404.968C340.161 406.696 339.297 409.48 339.297 413.32C339.297 417.16 340.161 419.976 341.889 421.768C343.681 423.496 346.017 424.36 348.897 424.36ZM348.897 460.36C352.737 460.36 355.777 459.432 358.017 457.576C360.257 455.784 361.377 453.032 361.377 449.32C361.377 442.92 357.537 439.24 349.857 438.28L344.577 437.8C341.953 438.824 339.937 440.264 338.529 442.12C337.121 443.976 336.417 446.376 336.417 449.32C336.417 453.032 337.537 455.784 339.777 457.576C342.017 459.432 345.057 460.36 348.897 460.36ZM397.011 445.96C392.659 445.96 388.979 444.936 385.971 442.888C382.963 440.776 380.691 437.96 379.155 434.44C377.619 430.856 376.851 426.856 376.851 422.44C376.851 418.088 377.619 414.12 379.155 410.536C380.691 406.952 382.899 404.136 385.779 402.088C388.723 399.976 392.147 398.92 396.051 398.92C402.515 398.92 407.315 400.744 410.451 404.392C413.651 407.976 415.251 413.192 415.251 420.04L415.059 423.88H385.971C385.971 429.256 387.123 433.64 389.427 437.032C391.731 440.424 394.899 442.12 398.931 442.12C401.939 442.12 404.467 441.48 406.515 440.2C408.627 438.92 410.579 437 412.371 434.44L414.291 435.88C412.179 439.4 409.715 441.96 406.899 443.56C404.083 445.16 400.787 445.96 397.011 445.96ZM406.131 420.04C406.131 414.408 405.299 410.12 403.635 407.176C401.971 404.232 399.443 402.76 396.051 402.76C394.131 402.76 392.403 403.528 390.867 405.064C389.331 406.536 388.115 408.584 387.219 411.208C386.387 413.832 385.971 416.776 385.971 420.04H406.131ZM439.662 445.96C436.078 445.96 433.262 444.936 431.214 442.888C429.166 440.84 428.142 437.704 428.142 433.48V403.72H421.422V399.88H428.142V391.24L432.942 385.48H436.782V399.88H448.302V403.72H436.782V433.48C436.782 439.24 439.022 442.12 443.502 442.12C445.038 442.12 446.318 441.96 447.342 441.64C448.43 441.32 449.55 440.84 450.702 440.2L451.662 442.12C450.19 443.208 448.558 444.136 446.766 444.904C444.974 445.608 442.606 445.96 439.662 445.96Z" fill="white"/>
<defs>
<linearGradient id="paint0_linear_42_781" x1="170" y1="56" x2="170" y2="379" gradientUnits="userSpaceOnUse">
<stop offset="0.25" stop-color="#FFAD33"/>
<stop offset="0.251666" stop-color="white"/>
</linearGradient>
<clipPath id="clip0_42_781">
<rect width="115.009" height="124.032" fill="white" transform="translate(152.615 196) rotate(13.8136)"/>
</clipPath>
</defs>
</svg>
