<svg width="1565" height="339" viewBox="0 0 1565 339" fill="none" xmlns="http://www.w3.org/2000/svg">
<g clip-path="url(#clip0_42_772)">
<path d="M44.1253 283.835C44.1253 283.835 31.7161 280.784 35.0066 267.401L58.0401 173.722C58.0401 173.722 61.3306 160.339 73.7397 163.39L117.172 174.069C117.172 174.069 129.581 177.121 126.291 190.503L103.257 284.182C103.257 284.182 99.9666 297.565 87.5574 294.514L44.1253 283.835Z" fill="white"/>
<path d="M63.422 178.593L119.263 192.323L97.8751 279.311L42.0338 265.581L63.422 178.593Z" fill="#FFAD33"/>
</g>
<path d="M80.0925 123.232V259.168C80.0925 274.784 85.3405 283.616 95.8365 285.664V294.112L57.0525 316C51.4205 313.696 46.1725 309.984 41.3085 304.864C36.4445 299.488 34.0125 294.496 34.0125 289.888V153.952C34.0125 138.336 28.7645 129.504 18.2685 127.456V119.008L57.0525 97.12C62.6845 99.424 67.9325 103.264 72.7965 108.64C77.6605 113.76 80.0925 118.624 80.0925 123.232ZM28.2525 49.12V25.696C28.2525 24.928 33.5005 22.624 43.9965 18.784C54.7485 14.688 60.8925 12.64 62.4285 12.64C64.2205 12.64 66.6525 14.816 69.7245 19.168C73.0525 23.52 74.7165 28 74.7165 32.608V60.64C74.7165 61.408 69.5965 63.84 59.3565 67.936C49.1165 71.776 42.8445 73.696 40.5405 73.696C38.2365 73.696 35.5485 71.52 32.4765 67.168C29.6605 62.56 28.2525 56.544 28.2525 49.12Z" fill="url(#paint0_linear_42_772)"/>
<path d="M209.052 280.672C213.916 280.672 218.908 278.624 224.028 274.528V224.992C224.028 209.376 218.78 200.544 208.284 198.496V190.048L247.068 168.16C252.444 170.464 257.692 174.304 262.812 179.68C267.932 184.8 270.492 189.664 270.492 194.272V280.288C270.492 282.336 256.412 288.864 228.252 299.872C200.348 310.624 183.196 316 176.796 316C170.652 316 163.484 310.496 155.292 299.488C147.356 288.48 143.388 275.296 143.388 259.936V55.648C143.388 53.856 157.98 47.584 187.164 36.832C216.604 25.824 233.5 20.32 237.852 20.32C239.388 20.32 241.18 24.032 243.228 31.456C245.276 38.88 247.58 47.84 250.14 58.336C252.956 68.832 255.772 76.64 258.588 81.76C261.66 86.624 267.292 89.056 275.484 89.056V96.736C269.852 99.296 260.252 103.904 246.684 110.56C233.372 116.96 226.204 120.16 225.18 120.16C221.34 120.16 216.476 109.792 210.588 89.056C204.7 68.064 199.964 57.568 196.38 57.568C193.82 57.568 191.516 58.848 189.468 61.408V252.256C189.468 271.2 195.996 280.672 209.052 280.672Z" fill="white"/>
<path d="M377.988 112C373.388 112 369.388 110.1 365.988 106.3C362.788 102.5 361.188 98 361.188 92.8C361.188 88.6 362.388 85.3 364.788 82.9C367.388 80.5 370.788 79.3 374.988 79.3C379.588 79.3 383.488 81.2 386.688 85C390.088 88.8 391.788 93.3 391.788 98.5C391.788 102.7 390.488 106 387.888 108.4C385.488 110.8 382.188 112 377.988 112ZM366.588 166C366.588 155.8 365.188 148.3 362.388 143.5C359.588 138.5 353.988 136 345.588 136H339.588V130H366.588C373.988 130 379.488 131 383.088 133C386.888 134.8 389.588 138.2 391.188 143.2C392.788 148.2 393.588 155.8 393.588 166V271H366.588V166ZM440.416 166C440.416 155.8 439.016 148.3 436.216 143.5C433.416 138.5 427.816 136 419.416 136H413.416V130H440.416C447.816 130 453.416 131 457.216 133C461.216 135 464.116 138 465.916 142H467.416C471.616 137.8 477.016 134.3 483.616 131.5C490.416 128.5 498.016 127 506.416 127C521.416 127 533.616 131 543.016 139C552.616 147 557.416 161 557.416 181V271H530.416V181C530.416 167 527.216 156.8 520.816 150.4C514.616 143.8 506.816 140.5 497.416 140.5C486.816 140.5 476.816 145.8 467.416 156.4V271H440.416V166ZM615 112C610.4 112 606.4 110.1 603 106.3C599.8 102.5 598.2 98 598.2 92.8C598.2 88.6 599.4 85.3 601.8 82.9C604.4 80.5 607.8 79.3 612 79.3C616.6 79.3 620.5 81.2 623.7 85C627.1 88.8 628.8 93.3 628.8 98.5C628.8 102.7 627.5 106 624.9 108.4C622.5 110.8 619.2 112 615 112ZM603.6 166C603.6 155.8 602.2 148.3 599.4 143.5C596.6 138.5 591 136 582.6 136H576.6V130H603.6C611 130 616.5 131 620.1 133C623.9 134.8 626.6 138.2 628.2 143.2C629.8 148.2 630.6 155.8 630.6 166V271H603.6V166ZM766.528 277C746.928 277 729.328 272.2 713.728 262.6C698.328 253 686.228 240 677.428 223.6C668.828 207 664.528 188.8 664.528 169C664.528 150 668.328 132.8 675.928 117.4C683.528 101.8 694.328 89.5 708.328 80.5C722.528 71.5 738.928 67 757.528 67C774.728 67 789.528 69.3 801.928 73.9C814.528 78.3 823.728 84 829.528 91C832.728 95 834.728 100.3 835.528 106.9C836.528 113.5 837.028 121.7 837.028 131.5H831.028C827.228 113.9 820.028 100.8 809.428 92.2C798.828 83.4 784.528 79 766.528 79C750.328 79 736.828 83.3 726.028 91.9C715.228 100.3 707.228 111.3 702.028 124.9C697.028 138.5 694.528 153.2 694.528 169C694.528 202.8 701.128 227.3 714.328 242.5C727.528 257.5 744.928 265 766.528 265C776.728 265 785.428 264.1 792.628 262.3C799.828 260.5 806.628 257.9 813.028 254.5V202.3C813.028 195.5 814.128 189.6 816.328 184.6C818.528 179.6 823.228 175.5 830.428 172.3C837.828 168.9 848.528 167.2 862.528 167.2V173.2C853.528 173.2 847.528 175.5 844.528 180.1C841.528 184.7 840.028 191.9 840.028 201.7V258.1C829.228 264.7 817.928 269.5 806.128 272.5C794.328 275.5 781.128 277 766.528 277ZM922.446 274C916.046 274 909.546 272.7 902.946 270.1C896.346 267.3 890.646 262.8 885.846 256.6C881.246 250.4 878.946 242.2 878.946 232C878.946 216.8 885.946 206 899.946 199.6C914.146 193.2 932.646 190 955.446 190H964.446C964.446 170.4 961.746 157 956.346 149.8C950.946 142.6 943.146 139 932.946 139C923.946 139 916.746 140.9 911.346 144.7C905.946 148.5 902.146 155.1 899.946 164.5H886.446C886.446 157.7 886.846 152.4 887.646 148.6C888.446 144.6 890.546 140.9 893.946 137.5C897.546 133.9 903.446 131.3 911.646 129.7C920.046 127.9 929.146 127 938.946 127C955.146 127 967.946 131.4 977.346 140.2C986.746 148.8 991.446 165.4 991.446 190V271H976.446L965.946 257.5H964.446C960.846 262.1 955.546 266 948.546 269.2C941.546 272.4 932.846 274 922.446 274ZM935.946 260.5C942.546 260.5 948.046 258.9 952.446 255.7C956.846 252.5 960.846 248.1 964.446 242.5V202H955.446C940.646 202 928.946 204.8 920.346 210.4C911.746 215.8 907.446 223 907.446 232C907.446 241.2 910.146 248.3 915.546 253.3C921.146 258.1 927.946 260.5 935.946 260.5ZM1079.78 274C1062.38 274 1048.98 267.1 1039.58 253.3C1030.38 239.5 1025.78 221.9 1025.78 200.5C1025.78 179.1 1030.58 161.5 1040.18 147.7C1049.98 133.9 1064.18 127 1082.78 127C1090.38 127 1097.08 127.8 1102.88 129.4C1108.68 131 1114.48 133.2 1120.28 136V109C1120.28 98.8 1118.88 91.3 1116.08 86.5C1113.28 81.5 1107.68 79 1099.28 79H1093.28V73H1120.28C1127.68 73 1133.18 74 1136.78 76C1140.58 77.8 1143.28 81.2 1144.88 86.2C1146.48 91.2 1147.28 98.8 1147.28 109V271H1132.28L1121.78 257.5H1120.28C1115.88 262.5 1110.68 266.5 1104.68 269.5C1098.88 272.5 1090.58 274 1079.78 274ZM1088.78 262C1096.98 262 1103.18 260.5 1107.38 257.5C1111.58 254.5 1115.88 250 1120.28 244V148C1114.28 145.2 1109.08 143 1104.68 141.4C1100.28 139.8 1095.98 139 1091.78 139C1078.98 139 1069.48 144.6 1063.28 155.8C1057.28 167 1054.28 181.9 1054.28 200.5C1054.28 218.9 1057.18 233.8 1062.98 245.2C1068.78 256.4 1077.38 262 1088.78 262ZM1242.8 331C1222.6 331 1206.5 327.3 1194.5 319.9C1182.7 312.5 1176.8 300.7 1176.8 284.5C1176.8 275.3 1179.9 267.3 1186.1 260.5C1192.3 253.7 1200.2 248.7 1209.8 245.5C1201.8 241.1 1197.8 235.1 1197.8 227.5C1197.8 223.5 1198.7 220.4 1200.5 218.2C1202.3 216 1204.9 213.6 1208.3 211C1201.9 207.8 1196.5 202.8 1192.1 196C1187.9 189.2 1185.8 181.2 1185.8 172C1185.8 142 1204.8 127 1242.8 127H1298.3V134.5L1278.8 137.5V139C1285 142.2 1290 146.7 1293.8 152.5C1297.8 158.1 1299.8 164.6 1299.8 172C1299.8 202 1280.8 217 1242.8 217C1221.8 217 1211.3 220.5 1211.3 227.5C1211.3 234.5 1221.8 238 1242.8 238C1262.2 238 1278 241.9 1290.2 249.7C1302.6 257.3 1308.8 268.9 1308.8 284.5C1308.8 300.7 1302.8 312.5 1290.8 319.9C1279 327.3 1263 331 1242.8 331ZM1242.8 206.5C1251.8 206.5 1259 203.8 1264.4 198.4C1270 192.8 1272.8 184 1272.8 172C1272.8 160.6 1270 152 1264.4 146.2C1259 140.4 1251.8 137.5 1242.8 137.5C1233.8 137.5 1226.5 140.3 1220.9 145.9C1215.5 151.3 1212.8 160 1212.8 172C1212.8 184 1215.5 192.8 1220.9 198.4C1226.5 203.8 1233.8 206.5 1242.8 206.5ZM1242.8 319C1254.8 319 1264.3 316.1 1271.3 310.3C1278.3 304.7 1281.8 296.1 1281.8 284.5C1281.8 264.5 1269.8 253 1245.8 250L1229.3 248.5C1221.1 251.7 1214.8 256.2 1210.4 262C1206 267.8 1203.8 275.3 1203.8 284.5C1203.8 296.1 1207.3 304.7 1214.3 310.3C1221.3 316.1 1230.8 319 1242.8 319ZM1393.16 274C1379.56 274 1368.06 270.8 1358.66 264.4C1349.26 257.8 1342.16 249 1337.36 238C1332.56 226.8 1330.16 214.3 1330.16 200.5C1330.16 186.9 1332.56 174.5 1337.36 163.3C1342.16 152.1 1349.06 143.3 1358.06 136.9C1367.26 130.3 1377.96 127 1390.16 127C1410.36 127 1425.36 132.7 1435.16 144.1C1445.16 155.3 1450.16 171.6 1450.16 193L1449.56 205H1358.66C1358.66 221.8 1362.26 235.5 1369.46 246.1C1376.66 256.7 1386.56 262 1399.16 262C1408.56 262 1416.46 260 1422.86 256C1429.46 252 1435.56 246 1441.16 238L1447.16 242.5C1440.56 253.5 1432.86 261.5 1424.06 266.5C1415.26 271.5 1404.96 274 1393.16 274ZM1421.66 193C1421.66 175.4 1419.06 162 1413.86 152.8C1408.66 143.6 1400.76 139 1390.16 139C1384.16 139 1378.76 141.4 1373.96 146.2C1369.16 150.8 1365.36 157.2 1362.56 165.4C1359.96 173.6 1358.66 182.8 1358.66 193H1421.66ZM1526.44 274C1515.24 274 1506.44 270.8 1500.04 264.4C1493.64 258 1490.44 248.2 1490.44 235V142H1469.44V130H1490.44V103L1505.44 85H1517.44V130H1553.44V142H1517.44V235C1517.44 253 1524.44 262 1538.44 262C1543.24 262 1547.24 261.5 1550.44 260.5C1553.84 259.5 1557.34 258 1560.94 256L1563.94 262C1559.34 265.4 1554.24 268.3 1548.64 270.7C1543.04 272.9 1535.64 274 1526.44 274Z" fill="white"/>
<defs>
<linearGradient id="paint0_linear_42_772" x1="57" y1="15" x2="57" y2="338" gradientUnits="userSpaceOnUse">
<stop offset="0.25" stop-color="#FFAD33"/>
<stop offset="0.251666" stop-color="white"/>
</linearGradient>
<clipPath id="clip0_42_772">
<rect width="115.009" height="124.032" fill="white" transform="translate(39.6145 155) rotate(13.8136)"/>
</clipPath>
</defs>
</svg>
