<svg width="24" height="25" viewBox="0 0 24 25" fill="none" xmlns="http://www.w3.org/2000/svg">
<g id="Frame">
<path id="Vector" d="M6 8.5V7.5C6 4.18629 8.68629 1.5 12 1.5C15.3137 1.5 18 4.18629 18 7.5V8.5H20C20.5523 8.5 21 8.94772 21 9.5V21.5C21 22.0523 20.5523 22.5 20 22.5H4C3.44772 22.5 3 22.0523 3 21.5V9.5C3 8.94772 3.44772 8.5 4 8.5H6ZM19 10.5H5V20.5H19V10.5ZM11 16.2324C10.4022 15.8866 10 15.2403 10 14.5C10 13.3954 10.8954 12.5 12 12.5C13.1046 12.5 14 13.3954 14 14.5C14 15.2403 13.5978 15.8866 13 16.2324V18.5H11V16.2324ZM8 8.5H16V7.5C16 5.29086 14.2091 3.5 12 3.5C9.79086 3.5 8 5.29086 8 7.5V8.5Z" fill="black"/>
</g>
</svg>
